<svg xmlns="http://www.w3.org/2000/svg" width="13.461" height="14.23" viewBox="0 0 13.461 14.23">
  <g id="delete_1_" data-name="delete (1)" transform="translate(-13.838)">
    <g id="그룹_6" data-name="그룹 6" transform="translate(15.186 2.738)">
      <g id="그룹_5" data-name="그룹 5" transform="translate(0)">
        <path id="패스_4" data-name="패스 4" d="M71.969,98.512l-.907,10.338H64.41L63.5,98.512l-1.149.1.924,10.526a.971.971,0,0,0,.959.866h7a.973.973,0,0,0,.959-.872l.923-10.519Z" transform="translate(-62.354 -98.512)" fill="#a4a4a4"/>
      </g>
    </g>
    <g id="그룹_8" data-name="그룹 8" transform="translate(17.492)">
      <g id="그룹_7" data-name="그룹 7" transform="translate(0)">
        <path id="패스_5" data-name="패스 5" d="M150.489,0h-4.231a.963.963,0,0,0-.962.962V2.788h1.154V1.154H150.3V2.788h1.154V.961A.962.962,0,0,0,150.489,0Z" transform="translate(-145.297)" fill="#a4a4a4"/>
      </g>
    </g>
    <g id="그룹_10" data-name="그룹 10" transform="translate(13.838 2.211)">
      <g id="그룹_9" data-name="그룹 9" transform="translate(0)">
        <path id="패스_6" data-name="패스 6" d="M26.722,79.568H14.415a.577.577,0,1,0,0,1.154H26.722a.577.577,0,1,0,0-1.154Z" transform="translate(-13.838 -79.568)" fill="#a4a4a4"/>
      </g>
    </g>
  </g>
</svg>
